IKResults																		
version=1																		
nRows=58																		
nColumns=19																		
inDegrees=yes																		
																		
"Units are S.I. units (second, meters, Newtons, ...)"																		
"If the header above contains a line with 'inDegrees', this indicates whether rotational values are in degrees (yes) or radians (no)."																		
																		
endheader																		
time	pelvis_tilt	pelvis_list	pelvis_rotation	pelvis_tx	pelvis_ty	pelvis_tz	hip_flexion_r	hip_adduction_r	hip_rotation_r	knee_angle_r	knee_angle_r_beta	ankle_angle_r	hip_flexion_l	hip_adduction_l	hip_rotation_l	knee_angle_l	knee_angle_l_beta	ankle_angle_l
3.99	5.3038552	8.77916607	170.1122875	0	0.83188985	-0.37562352	32.3423717	6.53852437	-14.65781457	18.41015771	0.32131787	4.32249894	9.12962472	-12.19553167	-18.60477475	0.16293627	0.00284377	10.96256463
4	5.62660758	8.76243676	170.3270488	0	0.83070605	-0.37654712	32.4861959	6.91988335	-13.32259134	16.29209341	0.28435067	3.89400448	9.11899693	-12.22040465	-18.50361871	0.1611522	0.00281264	11.31246197
4.01	5.88168683	8.7439505	170.5878334	0	0.8295349	-0.37734888	32.4795793	7.21314322	-11.83032408	14.27471496	0.24914078	3.56008291	9.0455969	-12.20629529	-18.34883474	0.15930883	0.00278046	11.65226319
4.02	5.88429962	8.86688367	170.8208726	0	0.82866145	-0.37827197	32.0768293	7.59402584	-10.22188537	12.32423194	0.21509843	3.13655962	8.63436441	-12.3665415	-18.4323975	0.15834744	0.00276368	11.93917505
4.03	5.98578717	8.90323005	171.1137052	0	0.82758721	-0.37909255	31.81955412	7.78142445	-8.68486108	10.69598753	0.1866802	2.80772663	8.37442011	-12.39829398	-18.30843022	0.15782638	0.00275459	12.25639554
4.04	6.12457249	8.92085526	171.3905383	0	0.8264535	-0.37990005	31.64387422	7.87169302	-7.35033355	9.40250539	0.16410468	2.46600147	8.14932549	-12.40329355	-18.13920829	0.15781921	0.00275446	12.58757068
4.05	6.2480004	8.90856334	171.6891243	0	0.82528306	-0.38068649	31.53438947	7.85812275	-6.24815943	8.49370001	0.14824303	2.15564066	7.92068382	-12.35282029	-17.8823034	0.15779687	0.00275407	12.912248
4.06	6.35941213	8.92484119	171.9265836	0	0.82406077	-0.38147454	31.72660372	7.77281791	-6.12739308	8.42503596	0.14704462	2.10461102	7.64837447	-12.39783672	-17.90249861	0.15873439	0.00277044	12.95761474
4.07	6.3146291	9.03623036	172.2445794	0	0.82325364	-0.38233576	31.26201829	7.84971797	-4.94325423	7.62453327	0.13307321	1.30667032	7.20583287	-12.45986194	-17.58850764	0.16097082	0.00280947	13.42175059
4.08	6.36138062	9.07517561	172.4604472	0	0.82225578	-0.38325178	31.32428046	7.79770061	-4.74993786	7.80728117	0.13626276	0.91957758	6.84784967	-12.50192537	-17.48298654	0.1638542	0.0028598	13.5389283
4.09	6.33862577	9.1430641	172.7116499	0	0.82142496	-0.38415184	31.34047673	7.73431985	-4.93554512	8.16208513	0.14245526	0.21233456	6.41272426	-12.561893	-17.31640264	0.16555868	0.00288954	13.79029231
4.1	6.35428982	9.21692072	172.9363111	0	0.82060231	-0.38512143	31.49527358	7.66747269	-5.33491064	8.82033238	0.15394384	-0.43570201	6.01410154	-12.64048237	-17.14389197	0.16865701	0.00294362	13.90391424
4.11	6.33923314	9.27794601	173.1153443	0	0.81991969	-0.38618733	31.66849318	7.59575263	-5.8735029	9.65148204	0.16845014	-1.20943152	5.56385763	-12.7180938	-17.03624377	0.17260673	0.00301256	13.97474858
4.12	6.37147881	9.3544346	173.3055047	0	0.81926072	-0.38729423	31.94807359	7.5160739	-6.59790753	10.6613766	0.18607612	-1.91444979	5.17021686	-12.81269841	-16.82600066	0.17607078	0.00307301	13.96439362
4.13	6.41527985	9.39917942	173.4875888	0	0.81869086	-0.3884651	32.27444789	7.39927327	-7.36520414	11.7712903	0.20544777	-2.62372752	4.79488995	-12.87509473	-16.58856359	0.18019445	0.00314499	13.89888846
4.14	6.35406364	9.45898517	173.5809818	0	0.81839913	-0.3897913	32.42196499	7.35386596	-7.93905193	12.78645339	0.22316571	-3.45483569	4.26094156	-12.97942463	-16.52961429	0.18380901	0.00320807	13.75690157
4.15	6.32130863	9.51525721	173.7257074	0	0.81818783	-0.39114621	32.63336973	7.26560169	-8.64683746	13.90486585	0.24268569	-4.12363528	3.7828939	-13.07570829	-16.34286887	0.19048793	0.00332464	13.50522804
4.16	6.30479272	9.54656386	173.8326215	0	0.8181076	-0.39258648	32.81588656	7.18923676	-9.2140926	14.95960804	0.26109442	-4.69766469	3.31615759	-13.14565598	-16.13514594	0.19335266	0.00337464	13.18004795
4.17	6.27595701	9.56051467	173.9329843	0	0.81819771	-0.39411712	32.95803708	7.1074097	-9.71909396	15.99335957	0.27913678	-5.17823472	2.83920082	-13.20642127	-15.91759972	0.19822236	0.00345963	12.74599275
4.18	6.25388248	9.55743317	174.0185846	0	0.81843288	-0.39572788	33.05577731	7.03516452	-10.12800567	16.95621253	0.29594174	-5.50835177	2.37361198	-13.24978113	-15.65976183	0.2022255	0.0035295	12.2144511
4.19	6.31100722	9.66549173	174.016769	0	0.81882726	-0.39757832	33.05822722	7.21491248	-10.09527836	17.62891741	0.30768265	-5.79106622	1.95657174	-13.4241989	-15.35131583	0.21127373	0.00368742	11.81451317
4.2	6.1182833	9.48928911	174.1702567	0	0.81954098	-0.39912128	32.99218411	6.89913903	-10.67739319	18.66842852	0.32582554	-5.86049552	1.37882061	-13.30020372	-15.17574253	0.21604548	0.00377071	10.75443356
4.21	6.06060374	9.41185965	174.2032187	0	0.8203435	-0.40093533	32.87581861	6.83180475	-10.84986306	19.39466717	0.3385008	-5.85024022	0.89931114	-13.28470645	-14.89768273	0.22438495	0.00391626	9.84919131
4.22	5.97298086	9.30632886	174.2748626	0	0.82136167	-0.40270692	32.67360423	6.73474086	-10.97252886	20.06261833	0.35015875	-5.67664009	0.42833095	-13.24587706	-14.59977354	0.23296624	0.00406603	8.79636163
4.23	5.8716882	9.17369695	174.3164086	0	0.82254428	-0.40453221	32.39738363	6.63616514	-11.059073	20.65053153	0.36041977	-5.39161755	-0.04298026	-13.17896454	-14.29958355	0.24549223	0.00428465	7.60711813
4.24	5.75462184	9.0067476	174.3668434	0	0.82393376	-0.40633644	32.03989059	6.51387305	-11.07685011	21.15098682	0.36915436	-5.03179698	-0.49716046	-13.08389913	-13.9886516	0.26298022	0.00458987	6.23863644
4.25	5.59998334	8.82820622	174.3957306	0	0.82549738	-0.40815075	31.58184308	6.39196445	-11.09448929	21.57767835	0.37660153	-4.5749559	-0.96816851	-12.97102877	-13.6778981	0.28716893	0.00501204	4.7495498
4.26	5.39126389	8.63781532	174.4240965	0	0.82728445	-0.40996961	30.99149523	6.26725384	-11.08420149	21.90579	0.38232816	-4.08075478	-1.46535411	-12.84902116	-13.36952445	0.3224781	0.0056283	3.11391187
4.27	5.16808224	8.41390341	174.4620091	0	0.82922239	-0.41173374	30.32748565	6.11021843	-11.04424866	22.14226104	0.38645536	-3.56062053	-1.92453842	-12.69188366	-13.03894551	0.37919565	0.00661821	1.31221725
4.28	4.91390734	8.13639216	174.4809229	0	0.83127183	-0.41348984	29.59670507	5.90451827	-10.96511689	22.33822319	0.38987554	-2.98258901	-2.36682384	-12.50044863	-12.79976343	0.47351423	0.00826438	-0.65550931
4.29	4.69755513	7.85147937	174.5276756	0	0.83340937	-0.41519377	28.83297203	5.70059319	-10.82849439	22.40776798	0.39108933	-2.42231543	-2.65277579	-12.31099064	-12.47463216	0.69419967	0.01211607	-2.69431564
4.3	4.29113127	7.63980134	174.5229906	0	0.83579198	-0.41692117	27.81985609	5.56822487	-10.75029479	22.41391561	0.39119663	-1.9085944	-3.09166072	-12.24697794	-12.41723432	1.04762365	0.01828448	-4.8015555
4.31	4.04366758	7.40904864	174.6049521	0	0.83800886	-0.41862848	26.94851091	5.40283918	-10.68395062	22.35014824	0.39008368	-1.39149723	-3.03584376	-12.32404891	-12.43488334	1.9204627	0.0335184	-6.76344264
4.32	3.77995902	7.20877777	174.7017387	0	0.84022993	-0.4203652	26.02013369	5.28200036	-10.57353309	22.18204049	0.38714964	-0.94601204	-2.73207029	-12.59618342	-12.72554167	3.27845581	0.05721985	-8.58697272
4.33	3.57125231	7.05525748	174.8326403	0	0.84230961	-0.42212174	25.12550157	5.20984457	-10.4854841	21.95694576	0.383221	-0.51225634	-2.15956774	-13.03844057	-13.09648205	5.00664064	0.08738236	-10.2572599
4.34	3.38177313	6.93651152	174.978441	0	0.84434859	-0.42383105	24.23391633	5.17337319	-10.41265122	21.6862883	0.37849713	-0.08585639	-1.43533677	-13.56414266	-13.43341573	6.93299741	0.12100363	-11.81849006
4.35	3.20291437	6.82593403	175.1166403	0	0.84627964	-0.42553369	23.33933178	5.16501635	-10.26873053	21.36444496	0.37287991	0.26488556	-0.6124424	-14.10640491	-13.6896052	8.98702588	0.15685319	-13.13756269
4.36	2.98758945	6.71824552	175.2863178	0	0.848186	-0.4271154	22.4042796	5.13810368	-10.17766817	21.03123624	0.36706432	0.66332716	0.22070171	-14.60099247	-13.77150455	11.03203705	0.19254537	-14.37712803
4.37	2.78223064	6.62232741	175.4516651	0	0.85000513	-0.42864385	21.47249599	5.13627158	-10.03524575	20.66847191	0.36073289	1.03955466	1.11537791	-15.05849883	-13.71058553	13.09401438	0.22853366	-15.33407003
4.38	2.52783562	6.49613564	175.6376535	0	0.85181942	-0.43003341	20.49796478	5.09163432	-9.89160515	20.3094139	0.35446614	1.47813937	1.97395652	-15.38196806	-13.45867609	15.05670414	0.26278906	-16.11474825
4.39	2.37762057	6.41859662	175.7856214	0	0.85340277	-0.43143744	19.63794197	5.12446916	-9.69546393	19.92280416	0.34771853	1.71968125	3.02045995	-15.76495378	-13.21007419	17.11755481	0.29875769	-16.40116291
4.4	2.16211236	6.29635393	175.9587335	0	0.85498665	-0.43267415	18.73657484	5.08932815	-9.50178022	19.57547897	0.34165656	2.07508659	3.98360901	-15.96394068	-12.77865667	18.98851477	0.3314121	-16.53046807
4.41	1.88244531	6.15215142	176.1461446	0	0.8565636	-0.43379759	17.7785748	5.02548658	-9.2784883	19.24388672	0.33586918	2.46886207	4.87050077	-16.04463336	-12.27150061	20.70099925	0.3613006	-16.42383691
4.42	1.6842744	6.01903344	176.3197689	0	0.85795503	-0.43486874	16.92584925	4.97576252	-9.07260067	18.91918442	0.33020206	2.77635556	5.87367553	-16.10945438	-11.77596339	22.36236072	0.39029682	-15.91192068
4.43	1.41533034	5.82123406	176.5061727	0	0.85938256	-0.43581194	16.01107923	4.85274632	-8.8013278	18.61652579	0.32491967	3.23817025	6.74815325	-15.98439221	-11.22544481	23.75155548	0.41454285	-15.28995397
4.44	1.08720623	5.38557794	176.4325152	0	0.86085779	-0.43689108	15.17250124	4.47428197	-8.52039286	18.51668901	0.32317719	3.32524814	7.34278215	-15.60870209	-11.18149652	24.72411585	0.43151723	-15.05710658
4.45	0.90307464	5.44795582	176.8435077	0	0.86189596	-0.43750056	14.29993579	4.61411984	-8.27817903	18.12601675	0.31635867	3.97464245	8.48448521	-15.64413024	-10.26157475	26.09276858	0.45540472	-13.20300582
4.46	0.77637657	5.29460006	176.9745826	0	0.86279073	-0.43828603	13.66803138	4.51060753	-8.12452042	17.99612201	0.31409158	4.19129646	9.50049656	-15.51702111	-9.92825816	27.10772811	0.47311911	-11.8251933
4.47	0.54019614	5.05469536	177.1164636	0	0.86382344	-0.43895746	12.90495275	4.32439565	-7.82309491	17.85000468	0.31154135	4.60618328	10.29043069	-15.17826332	-9.5811569	27.73173594	0.4840101	-10.60970182
4.48	0.35170471	4.88661312	177.2454422	0	0.86461279	-0.43960924	12.23908098	4.1906891	-7.68090421	17.77387285	0.3102126	4.93719181	11.14107017	-14.9543983	-9.35545995	28.27788217	0.49354215	-9.14876202
4.49	0.1581012	4.67686636	177.3643449	0	0.86536904	-0.44020191	11.57938621	4.02138451	-7.46505786	17.70474663	0.30900612	5.32013517	11.91213781	-14.64503675	-9.20326077	28.52421981	0.49784155	-7.90852201
4.5	-0.02895823	4.48810715	177.4724698	0	0.86599605	-0.44073641	10.95401305	3.86838081	-7.24519406	17.67345876	0.30846005	5.70739367	12.65191637	-14.33848741	-9.09797624	28.57989936	0.49881334	-6.72154559
4.51	-0.22099802	4.33938305	177.5684697	0	0.86648614	-0.4412444	10.36322791	3.7408052	-7.11790581	17.70897528	0.30907993	6.0901185	13.36665514	-14.09395455	-9.09483091	28.49815201	0.49738658	-5.51077187
4.52	-0.36530348	4.19847971	177.6506824	0	0.86686203	-0.4417132	9.81956532	3.63407419	-6.93653973	17.73355484	0.30950892	6.47597743	14.07619818	-13.83849396	-9.13294834	28.18192069	0.49186731	-4.57634134
4.53	-0.45910519	4.12685274	177.7078065	0	0.86709992	-0.44222314	9.34196198	3.59273865	-6.88460358	17.76628509	0.31008017	6.80216316	14.78958237	-13.72206472	-9.33878664	27.68352614	0.48316868	-3.88281336
4.54	-0.58130054	4.06873634	177.7662721	0	0.86721415	-0.44264469	8.8647676	3.56724805	-6.77271676	17.85516903	0.31163149	7.16761947	15.46568957	-13.57441552	-9.50643513	27.08220738	0.47267369	-3.15906808
4.55	-0.83059238	3.90143134	177.7950933	0	0.86733073	-0.44296229	8.29613032	3.41155083	-6.59532677	18.03187976	0.31471567	7.72456409	15.93392512	-13.25381349	-9.72263893	26.30684446	0.45914105	-2.27405432
4.56	-0.87559891	3.98366876	177.8477649	0	0.86716685	-0.443341	7.91645006	3.52856429	-6.61377569	18.12677727	0.31637195	7.98444583	16.65970325	-13.31375075	-10.02617	25.48192456	0.44474348	-1.87037191
